<?xml version="1.0" encoding="UTF-8" standalone="no"?>
<svg
   height="24px"
   viewBox="0 -960 960 960"
   width="24px"
   fill="inherit"
   version="1.1"
   id="svg1"
   sodipodi:docname="match_case.svg"
   inkscape:version="1.3.2 (091e20e, 2023-11-25, custom)"
   xmlns:inkscape="http://www.inkscape.org/namespaces/inkscape"
   xmlns:sodipodi="http://sodipodi.sourceforge.net/DTD/sodipodi-0.dtd"
   xmlns="http://www.w3.org/2000/svg"
   xmlns:svg="http://www.w3.org/2000/svg">
  <defs
     id="defs1" />
  <sodipodi:namedview
     id="namedview1"
     pagecolor="#505050"
     bordercolor="#ffffff"
     borderopacity="1"
     inkscape:showpageshadow="0"
     inkscape:pageopacity="0"
     inkscape:pagecheckerboard="1"
     inkscape:deskcolor="#505050"
     inkscape:zoom="18.479167"
     inkscape:cx="20.53664"
     inkscape:cy="13.664036"
     inkscape:current-layer="svg1" />
  <path
     d="m131-252 165-440h79l165 440h-76l-39-112H247l-40 112h-76Zm139-176h131l-64-182h-4l-63 182Zm395 186q-51 0-81-27.5T554-342q0-44 34.5-72.5T677-443q23 0 45 4t38 11v-12q0-29-20.5-47T685-505q-23 0-42 9.5T610-468l-47-35q24-29 54.5-43t68.5-14q69 0 103 32.5t34 97.5v178h-63v-37h-4q-14 23-38 35t-53 12Zm12-54q35 0 59.5-24t24.5-56q-14-8-33.5-12.5T689-393q-32 0-50 14t-18 37q0 20 16 33t40 13Z"
     id="path1"
     style="fill:#000000;fill-opacity:1" />
</svg>
