<?xml version="1.0" encoding="UTF-8" standalone="no"?>
<svg
   viewBox="0 0 96 96"
   id="Icons_Volume_M"
   overflow="hidden"
   version="1.1"
   sodipodi:docname="speaker.svg"
   inkscape:version="1.3.2 (091e20e, 2023-11-25, custom)"
   xmlns:inkscape="http://www.inkscape.org/namespaces/inkscape"
   xmlns:sodipodi="http://sodipodi.sourceforge.net/DTD/sodipodi-0.dtd"
   xmlns="http://www.w3.org/2000/svg"
   xmlns:svg="http://www.w3.org/2000/svg">
  <defs
     id="defs4" />
  <sodipodi:namedview
     id="namedview4"
     pagecolor="#505050"
     bordercolor="#ffffff"
     borderopacity="1"
     inkscape:showpageshadow="0"
     inkscape:pageopacity="0"
     inkscape:pagecheckerboard="1"
     inkscape:deskcolor="#505050"
     showgrid="false"
     inkscape:zoom="4.328125"
     inkscape:cx="48.866426"
     inkscape:cy="83.523466"
     inkscape:current-layer="Icons_Volume_M" />
  <g
     id="Icons"
     style="stroke-width:4;stroke-dasharray:none;stroke:#000000;stroke-opacity:1">
    <path
       d="M48 82.135 48 13.865 22.638 35 3 35 3 61 22.638 61ZM5 37 23.362 37 46 18.135 46 77.865 23.362 59 5 59Z"
       id="path1"
       style="stroke-width:4;stroke-dasharray:none;stroke:#000000;stroke-opacity:1" />
    <path
       d="M83 48C83.0315 38.4592 79.1333 29.3264 72.222 22.749L70.837 24.192C83.9858 36.7869 84.4349 57.6562 71.84 70.805 71.5129 71.1465 71.1785 71.4809 70.837 71.808L72.222 73.251C79.1333 66.6736 83.0315 57.5408 83 48Z"
       id="path2"
       style="stroke-width:4;stroke-dasharray:none;stroke:#000000;stroke-opacity:1" />
    <path
       d="M63.066 64.023 64.437 65.48C74.0909 56.412 74.5659 41.2349 65.4979 31.5809 65.1554 31.2163 64.8016 30.8625 64.437 30.52L63.066 31.977C71.9153 40.2867 72.3527 54.1968 64.0429 63.0461 63.7276 63.3819 63.4018 63.7077 63.066 64.023Z"
       id="path3"
       style="stroke-width:4;stroke-dasharray:none;stroke:#000000;stroke-opacity:1" />
    <path
       d="M61 48C60.9939 44.2876 59.4019 40.7548 56.625 38.291L55.297 39.791C59.8335 43.8001 60.261 50.7277 56.2518 55.2642 55.9535 55.6018 55.6346 55.9206 55.297 56.219L56.625 57.719C59.4041 55.2526 60.9963 51.7157 61 48Z"
       id="path4"
       style="stroke-width:4;stroke-dasharray:none;stroke:#000000;stroke-opacity:1" />
  </g>
</svg>
