<?xml version="1.0" encoding="UTF-8" standalone="no"?>
<svg
   height="24px"
   viewBox="0 -960 960 960"
   width="24px"
   fill="inherit"
   version="1.1"
   id="svg1"
   sodipodi:docname="word_spacing.svg"
   inkscape:version="1.3.2 (091e20e, 2023-11-25, custom)"
   xmlns:inkscape="http://www.inkscape.org/namespaces/inkscape"
   xmlns:sodipodi="http://sodipodi.sourceforge.net/DTD/sodipodi-0.dtd"
   xmlns="http://www.w3.org/2000/svg"
   xmlns:svg="http://www.w3.org/2000/svg">
  <defs
     id="defs1" />
  <sodipodi:namedview
     id="namedview1"
     pagecolor="#505050"
     bordercolor="#ffffff"
     borderopacity="1"
     inkscape:showpageshadow="0"
     inkscape:pageopacity="0"
     inkscape:pagecheckerboard="1"
     inkscape:deskcolor="#505050"
     inkscape:zoom="52.266976"
     inkscape:cx="12.407452"
     inkscape:cy="16.444418"
     inkscape:current-layer="svg1" />
  <path
     d="m 149.8768,-90.76338 c -36.99224,0 -66.368438,-9.9734 -88.128588,-29.9202 -21.760143,-19.94679 -32.64021,-46.24031 -32.64021,-78.88053 0,-31.91487 12.512085,-58.20838 37.53624,-78.88051 25.024174,-20.67215 57.120388,-31.00821 96.288648,-31.00821 16.68277,0 33.00287,1.45067 48.96031,4.35203 15.95744,2.90135 29.73887,6.89071 41.34428,11.96807 v -13.05608 c 0,-21.0348 -7.43471,-38.08025 -22.30414,-51.13635 -14.86944,-13.05607 -34.63489,-19.58411 -59.2964,-19.58411 -16.68276,0 -31.91487,3.44535 -45.69629,10.33606 -13.78143,6.8907 -25.74951,16.86412 -35.904248,29.9202 l -51.136338,-38.08026 c 17.408118,-21.03479 37.173578,-36.62957 59.296402,-46.7843 22.122804,-10.15474 46.965644,-15.23211 74.528494,-15.23211 50.04832,0 87.40322,11.78675 112.06474,35.36024 24.66149,23.57349 36.99224,58.93372 36.99224,106.08069 v 193.6653 h -68.54446 v -40.25627 h -4.35204 c -10.15471,16.68277 -23.93614,29.37619 -41.34426,38.08025 -17.40811,8.70405 -36.62958,13.05609 -57.66438,13.05609 z m 13.05609,-58.75239 c 25.38683,0 46.96565,-8.70406 64.73642,-26.11217 17.77078,-17.40812 26.65618,-37.71759 26.65618,-60.92841 -10.15473,-5.8027 -22.30415,-10.33607 -36.44825,-13.60009 -14.14408,-3.26401 -28.10683,-4.89603 -41.88826,-4.89603 -23.21082,0 -41.34427,5.07737 -54.40036,15.2321 -13.05609,10.15473 -19.58413,23.5735 -19.58413,40.25626 0,14.50677 5.8027,26.47484 17.40812,35.90424 11.60541,9.42941 26.11217,14.1441 43.52028,14.1441 z"
     id="path1"
     style="fill:#000000;fill-opacity:1;stroke-width:1.088"
     sodipodi:nodetypes="sssssscssssccssssccccsssscssssss" />
  <path
     d="m 741.44186,-90.76338 c -36.99224,0 -66.36844,-9.9734 -88.12859,-29.9202 -21.76015,-19.94679 -32.64021,-46.24031 -32.64021,-78.88053 0,-31.91487 12.51208,-58.20838 37.53625,-78.88051 25.02417,-20.67215 57.12037,-31.00821 96.28864,-31.00821 16.68273,0 33.00291,1.45067 48.96036,4.35203 15.95743,2.90135 29.73882,6.89071 41.34426,11.96807 v -13.05608 c 0,-21.0348 -7.43471,-38.08025 -22.30413,-51.13635 -14.86951,-13.05607 -34.63493,-19.58411 -59.29644,-19.58411 -16.68277,0 -31.91488,3.44535 -45.6963,10.33606 -13.78143,6.8907 -25.74951,16.86412 -35.90424,29.9202 l -51.13634,-38.08026 c 17.40812,-21.03479 37.17358,-36.62957 59.2964,-46.7843 22.12281,-10.15474 46.96564,-15.23211 74.52849,-15.23211 50.04834,0 87.40325,11.78675 112.06479,35.36024 24.66146,23.57349 36.99218,58.93372 36.99218,106.08069 v 193.6653 h -68.54441 v -40.25627 h -4.35209 c -10.15469,16.68277 -23.93608,29.37619 -41.34427,38.08025 -17.40811,8.70405 -36.62956,13.05609 -57.66435,13.05609 z m 13.05609,-58.75239 c 25.38683,0 46.96567,-8.70406 64.73642,-26.11217 17.77076,-17.40812 26.65623,-37.71759 26.65623,-60.92841 -10.15478,-5.8027 -22.30423,-10.33607 -36.44827,-13.60009 -14.14411,-3.26401 -28.10688,-4.89603 -41.88827,-4.89603 -23.21085,0 -41.34431,5.07737 -54.40039,15.2321 -13.05609,10.15473 -19.58413,23.5735 -19.58413,40.25626 0,14.50677 5.8027,26.47484 17.40812,35.90424 11.60541,9.42941 26.11218,14.1441 43.52029,14.1441 z"
     id="path2"
     style="fill:#000000;fill-opacity:1;stroke-width:1.088"
     sodipodi:nodetypes="sssssscssssccssssccccsssscssssss" />
  <path
     sodipodi:type="star"
     style="fill:#000000;fill-opacity:1;fill-rule:evenodd;stroke-width:2.68;stroke-miterlimit:80;paint-order:markers fill stroke"
     id="path5"
     inkscape:flatsided="true"
     sodipodi:sides="3"
     sodipodi:cx="3.4092445"
     sodipodi:cy="2.0563698"
     sodipodi:r1="4.5244312"
     sodipodi:r2="2.2622156"
     sodipodi:arg1="1.0375562"
     sodipodi:arg2="2.0847537"
     inkscape:rounded="0"
     inkscape:randomized="0"
     d="M 5.7091319,5.9526496 -1.1149764,2.0999907 5.6335782,-1.883531 Z"
     transform="matrix(40,0,0,40,172.7151,-856.50166)"
     inkscape:transform-center-x="44.48667"
     inkscape:transform-center-y="-0.87241993" />
  <path
     sodipodi:type="star"
     style="fill:#000000;fill-opacity:1;fill-rule:evenodd;stroke-width:2.68;stroke-miterlimit:80;paint-order:markers fill stroke"
     id="path6"
     inkscape:flatsided="true"
     sodipodi:sides="3"
     sodipodi:cx="3.4092445"
     sodipodi:cy="2.0563698"
     sodipodi:r1="4.5244312"
     sodipodi:r2="2.2622156"
     sodipodi:arg1="1.0375562"
     sodipodi:arg2="2.0847537"
     inkscape:rounded="0"
     inkscape:randomized="0"
     d="M 5.7091319,5.9526496 -1.1149764,2.0999907 5.6335782,-1.883531 Z"
     transform="matrix(-40,0,0,40,763.94128,-856.50166)"
     inkscape:transform-center-x="-44.486672"
     inkscape:transform-center-y="-0.87241993" />
  <rect
     style="fill:#000000;fill-opacity:1;fill-rule:evenodd;stroke-width:2.95797;stroke-miterlimit:80;paint-order:markers fill stroke"
     id="rect6"
     width="60.67598"
     height="111.04395"
     x="386.59894"
     y="-281.77872" />
  <rect
     style="fill:#000000;fill-opacity:1;fill-rule:evenodd;stroke-width:2.95797;stroke-miterlimit:80;paint-order:markers fill stroke"
     id="rect7"
     width="60.67598"
     height="111.04395"
     x="505.23801"
     y="-281.77872" />
</svg>
